HIERARCHY
ROOT hip
{
  OFFSET 0 0 0
  CHANNELS 6 Xposition Yposition Zposition Zrotation Yrotation Xrotation
  JOINT abdomen
  {
    OFFSET 0 20.6881 -0.73152
    CHANNELS 3 Zrotation Xrotation Yrotation
    JOINT chest
    {
      OFFSET 0 11.7043 -0.48768
      CHANNELS 3 Zrotation Xrotation Yrotation
      JOINT neck
      {
        OFFSET 0 22.1894 -2.19456
        CHANNELS 3 Zrotation Xrotation Yrotation
        JOINT head
        {
          OFFSET -0.24384 7.07133 1.2192
          CHANNELS 3 Zrotation Xrotation Yrotation
          JOINT leftEye
          {
            OFFSET 4.14528 8.04674 8.04672
            CHANNELS 3 Zrotation Xrotation Yrotation
            End Site
            {
              OFFSET 1 0 0
            }
          }
          JOINT rightEye
          {
            OFFSET -3.6576 8.04674 8.04672
            CHANNELS 3 Zrotation Xrotation Yrotation
            End Site
            {
              OFFSET 1 0 0
            }
          }
        }
      }
      JOINT rCollar
      {
        OFFSET -2.68224 19.2634 -4.8768
        CHANNELS 3 Zrotation Xrotation Yrotation
        JOINT rShldr
        {
          OFFSET -8.77824 -1.95073 1.46304
          CHANNELS 3 Zrotation Xrotation Yrotation
          JOINT rForeArm
          {
            OFFSET -28.1742 -1.7115 0.48768
            CHANNELS 3 Zrotation Xrotation Yrotation
            JOINT rHand
            {
              OFFSET -22.5879 0.773209 7.07136
              CHANNELS 3 Zrotation Xrotation Yrotation
              JOINT rThumb1
              {
                OFFSET -1.2192 -0.487915 3.41376
                CHANNELS 3 Zrotation Xrotation Yrotation
                JOINT rThumb2
                {
                  OFFSET -3.37035 -0.52449 3.41376
                  CHANNELS 3 Zrotation Xrotation Yrotation
                  End Site
                  {
                    OFFSET -1.78271 -1.18214 1.43049
                  }
                }
              }
              JOINT rIndex1
              {
                OFFSET -7.75947 0.938293 5.60832
                CHANNELS 3 Zrotation Xrotation Yrotation
                JOINT rIndex2
                {
                  OFFSET -2.54057 -0.884171 1.56538
                  CHANNELS 3 Zrotation Xrotation Yrotation
                  End Site
                  {
                    OFFSET -1.62519 -0.234802 1.16502
                  }
                }
              }
              JOINT rMid1
              {
                OFFSET -8.24714 1.18213 3.41376
                CHANNELS 3 Zrotation Xrotation Yrotation
                JOINT rMid2
                {
                  OFFSET -3.10165 -0.590103 1.0647
                  CHANNELS 3 Zrotation Xrotation Yrotation
                  End Site
                  {
                    OFFSET -2.48547 -0.328903 0.83742
                  }
                }
              }
              JOINT rRing1
              {
                OFFSET -8.82822 0.546677 1.51678
                CHANNELS 3 Zrotation Xrotation Yrotation
                JOINT rRing2
                {
                  OFFSET -2.60934 -0.819778 -0.0198488
                  CHANNELS 3 Zrotation Xrotation Yrotation
                  End Site
                  {
                    OFFSET -2.33842 -0.294052 0.168128
                  }
                }
              }
              JOINT rPinky1
              {
                OFFSET -8.27202 -0.0477905 -0.4584
                CHANNELS 3 Zrotation Xrotation Yrotation
                JOINT rPinky2
                {
                  OFFSET -1.82734 -0.647385 -0.700984
                  CHANNELS 3 Zrotation Xrotation Yrotation
                  End Site
                  {
                    OFFSET -1.69225 -0.51767 -0.607171
                  }
                }
              }
            }
          }
        }
      }
      JOINT lCollar
      {
        OFFSET 2.68224 19.2634 -4.8768
        CHANNELS 3 Zrotation Xrotation Yrotation
        JOINT lShldr
        {
          OFFSET 8.77824 -1.95073 1.46304
          CHANNELS 3 Zrotation Xrotation Yrotation
          JOINT lForeArm
          {
            OFFSET 28.1742 -1.7115 0.48768
            CHANNELS 3 Zrotation Xrotation Yrotation
            JOINT lHand
            {
              OFFSET 22.5879 0.773209 7.07136
              CHANNELS 3 Zrotation Xrotation Yrotation
              JOINT lThumb1
              {
                OFFSET 1.2192 -0.487915 3.41376
                CHANNELS 3 Zrotation Xrotation Yrotation
                JOINT lThumb2
                {
                  OFFSET 3.37035 -0.52449 3.41376
                  CHANNELS 3 Zrotation Xrotation Yrotation
                  End Site
                  {
                    OFFSET 1.78271 -1.18214 1.43049
                  }
                }
              }
              JOINT lIndex1
              {
                OFFSET 7.75947 0.938293 5.60832
                CHANNELS 3 Zrotation Xrotation Yrotation
                JOINT lIndex2
                {
                  OFFSET 2.54057 -0.884171 1.56538
                  CHANNELS 3 Zrotation Xrotation Yrotation
                  End Site
                  {
                    OFFSET 1.62519 -0.234802 1.16502
                  }
                }
              }
              JOINT lMid1
              {
                OFFSET 8.24714 1.18213 3.41376
                CHANNELS 3 Zrotation Xrotation Yrotation
                JOINT lMid2
                {
                  OFFSET 3.10165 -0.590103 1.0647
                  CHANNELS 3 Zrotation Xrotation Yrotation
                  End Site
                  {
                    OFFSET 2.48547 -0.328903 0.83742
                  }
                }
              }
              JOINT lRing1
              {
                OFFSET 8.82822 0.546677 1.51678
                CHANNELS 3 Zrotation Xrotation Yrotation
                JOINT lRing2
                {
                  OFFSET 2.60934 -0.819778 -0.0198488
                  CHANNELS 3 Zrotation Xrotation Yrotation
                  End Site
                  {
                    OFFSET 2.33842 -0.294052 0.168128
                  }
                }
              }
              JOINT lPinky1
              {
                OFFSET 8.27202 -0.0477905 -0.4584
                CHANNELS 3 Zrotation Xrotation Yrotation
                JOINT lPinky2
                {
                  OFFSET 1.82734 -0.647385 -0.700984
                  CHANNELS 3 Zrotation Xrotation Yrotation
                  End Site
                  {
                    OFFSET 1.69225 -0.51767 -0.607171
                  }
                }
              }
            }
          }
        }
      }
    }
  }
  JOINT rButtock
  {
    OFFSET -8.77824 4.35084 1.2192
    CHANNELS 3 Zrotation Xrotation Yrotation
    JOINT rThigh
    {
      OFFSET 0 -1.70687 -2.19456
      CHANNELS 3 Zrotation Xrotation Yrotation
      JOINT rShin
      {
        OFFSET 0 -36.8199 0.73152
        CHANNELS 3 Zrotation Xrotation Yrotation
        JOINT rFoot
        {
          OFFSET 0.73152 -45.1104 -5.12064
          CHANNELS 3 Zrotation Xrotation Yrotation
          End Site
          {
            OFFSET -1.1221 -3.69964 12.103
          }
        }
      }
    }
  }
  JOINT lButtock
  {
    OFFSET 8.77824 4.35084 1.2192
    CHANNELS 3 Zrotation Xrotation Yrotation
    JOINT lThigh
    {
      OFFSET 0 -1.70687 -2.19456
      CHANNELS 3 Zrotation Xrotation Yrotation
      JOINT lShin
      {
        OFFSET 0 -36.8199 0.73152
        CHANNELS 3 Zrotation Xrotation Yrotation
        JOINT lFoot
        {
          OFFSET -0.73152 -45.1104 -5.12064
          CHANNELS 3 Zrotation Xrotation Yrotation
          End Site
          {
            OFFSET 1.1221 -3.69964 12.103
          }
        }
      }
    }
  }
}
MOTION
Frames:	7
Frame Time:	0.00833333
-6.72649 84.1002 -24.731 0.0 0.0 0.0 -1.51925 -0.00282957 -0.0413933 -0.418697 0.00102582 -0.072511 8.3808e-14 -1.59028e-15 4.9696e-17 2.51882e-13 3.18055e-15 2.45375e-16 -0.0 0.0 0.0 -0.0 0.0 0.0 4.19933e-14 -2.91188e-18 2.48481e-16 8.82842e-13 -2.04997e-16 4.17448e-15 1.51471e-11 -4.54859e-12 -1.33583e-13 1.73596e-10 4.53234e-12 3.78486e-13 4.09432e-10 -3.49159e-14 5.24792e-13 7.0706e-10 -6.36111e-14 8.84989e-13 4.09436e-10 -3.4191e-14 5.12069e-13 7.73091 5.47488 0.417314 4.09432e-10 -3.47873e-14 5.24792e-13 2.90554 0.965183 0.102902 4.0944e-10 -3.46879e-14 5.25587e-13 10.2786 0.731801 0.0259123 4.09426e-10 -3.29983e-14 5.34333e-13 2.22167 -0.733487 -0.20892 4.18966e-14 -3.30014e-18 -1.49089e-16 8.78513e-13 -4.84538e-16 2.98177e-15 1.51871e-11 4.52513e-12 -1.20861e-13 1.73558e-10 -4.56459e-12 3.91208e-13 4.09445e-10 -7.96043e-14 5.27972e-13 7.07101e-10 -1.39944e-13 9.00892e-13 4.0944e-10 -7.91163e-14 5.34333e-13 -7.73091 5.47488 -0.417314 4.09446e-10 -8.01102e-14 5.27972e-13 -2.90554 0.965183 -0.102902 4.09437e-10 -7.91163e-14 5.28767e-13 -10.2786 0.731801 -0.0259123 4.09452e-10 -7.83212e-14 5.1843e-13 -2.22167 -0.733487 0.20892 -2.03217e-16 0.0 -3.88251e-19 -0.640686 -1.92322 -0.00643384 -0.00925358 -2.07856 -0.0764184 -0.511995 3.99733 0.140289 2.03217e-16 0.0 3.88251e-19 -1.66989 -6.4978 0.154705 -0.00230956 6.20796 -0.0679738 0.534204 0.285504 -0.0665868
-7.64213 82.5766 -27.3977 -5.379 2.0168 8.4615 -0.739473 -1.79282 0.841693 0.431081 0.408244 0.161235 1.4398 -1.15114 0.514161 -3.07445 2.97387 0.815162 -0.0 0.0 0.0 -0.0 0.0 0.0 8.43973e-14 1.58572e-14 2.43985e-14 20.2945 16.9206 0.138023 -20.6354 -18.4272 15.1457 0.0517249 -5.05128 -0.700003 3.87211e-10 -1.66051e-09 5.16282e-10 6.61452e-10 -2.87118e-09 8.92811e-10 3.87214e-10 -1.66051e-09 5.16267e-10 7.73091 5.47488 0.417314 3.8721e-10 -1.66051e-09 5.1628e-10 2.90554 0.965183 0.102902 3.87217e-10 -1.66051e-09 5.16282e-10 10.2786 0.731801 0.0259123 3.87204e-10 -1.66051e-09 5.16292e-10 2.22167 -0.733487 -0.20892 8.43299e-14 1.58569e-14 2.40281e-14 -20.6161 17.8799 -0.974031 18.177 -15.7572 -15.0933 -0.0271729 -3.6614 0.510801 2.62344e-10 -1.99183e-09 -3.94938e-10 4.57898e-10 -3.44574e-09 -6.84257e-10 2.62341e-10 -1.99182e-09 -3.94927e-10 -7.73091 5.47488 -0.417314 2.62345e-10 -1.99183e-09 -3.94936e-10 -2.90554 0.965183 -0.102902 2.62335e-10 -1.99183e-09 -3.94937e-10 -10.2786 0.731801 -0.0259123 2.6235e-10 -1.99183e-09 -3.94946e-10 -2.22167 -0.733487 0.20892 -2.03217e-16 0.0 -3.88251e-19 1.46728 -5.45953 0.0781212 -0.01281 3.66998 0.0254837 -0.587071 1.12457 -1.20901 2.03217e-16 0.0 3.88251e-19 0.648015 -9.59174 1.27046 -0.0097504 11.7236 -0.150489 0.633948 -2.05567 1.10728
-7.60348 82.5742 -27.4016 -5.4251 1.8702 8.5031 0.145244 -3.69149 1.78462 1.32903 0.843866 0.410059 2.98136 -2.37943 1.05538 -6.40515 6.09339 1.67445 -0.0 0.0 0.0 -0.0 0.0 0.0 1.30859e-13 3.79169e-14 5.12802e-14 41.6434 34.8075 0.328743 -30.6327 -33.3447 36.1498 -0.0297534 -10.3692 -1.4556 3.80726e-10 -3.64608e-09 1.12659e-09 6.41615e-10 -6.30491e-09 1.9484e-09 3.80727e-10 -3.64608e-09 1.12657e-09 7.73091 5.47488 0.417314 3.80724e-10 -3.64608e-09 1.12658e-09 2.90554 0.965183 0.102902 3.80728e-10 -3.64608e-09 1.12659e-09 10.2786 0.731801 0.0259123 3.80718e-10 -3.64608e-09 1.1266e-09 2.22167 -0.733487 -0.20892 1.30825e-13 3.79168e-14 5.09386e-14 -41.5964 36.7741 -2.39083 27.7608 -28.6038 -34.5432 0.0156055 -7.51243 1.05517 9.97949e-11 -4.4295e-09 -8.83973e-10 1.83117e-10 -7.66191e-09 -1.53134e-09 9.97934e-11 -4.42948e-09 -8.83958e-10 -7.73091 5.47488 -0.417314 9.97954e-11 -4.4295e-09 -8.8397e-10 -2.90554 0.965183 -0.102902 9.97853e-11 -4.42951e-09 -8.83974e-10 -10.2786 0.731801 -0.0259123 9.97999e-11 -4.42951e-09 -8.83981e-10 -2.22167 -0.733487 0.20892 -2.03217e-16 0.0 -3.88251e-19 3.71196 -9.20022 0.176317 -0.0390158 9.74615 0.13505 -0.812709 -1.90932 -2.6292 2.03217e-16 0.0 3.88251e-19 3.23839 -12.8548 2.48593 0.000708189 17.5542 -0.243043 0.844378 -4.5262 2.35812
-7.52423 82.585 -27.3892 -5.345 1.7312 8.4724 0.986171 -5.36779 2.61812 2.12067 1.22261 0.628857 4.38146 -3.45231 1.54498 -9.47978 8.91434 2.47207 -0.0 0.0 0.0 -0.0 0.0 0.0 1.69205e-13 4.75774e-14 7.26985e-14 60.5189 50.7603 0.626258 -30.003 -37.858 59.8487 -0.22635 -15.1446 -2.16715 3.42769e-10 -4.98146e-09 1.5478e-09 5.70236e-10 -8.61342e-09 2.67666e-09 3.4277e-10 -4.98147e-09 1.54778e-09 7.73091 5.47488 0.417314 3.42767e-10 -4.98146e-09 1.54779e-09 2.90554 0.965183 0.102902 3.42769e-10 -4.98146e-09 1.5478e-09 10.2786 0.731801 0.0259123 3.42761e-10 -4.98146e-09 1.54781e-09 2.22167 -0.733487 -0.20892 1.69196e-13 4.75773e-14 7.23825e-14 -58.974 53.5555 -4.68476 28.8278 -33.0946 -55.3113 0.117417 -10.9807 1.5578 -3.18577e-11 -5.97533e-09 -1.18587e-09 -4.0507e-11 -1.03369e-08 -2.05457e-09 -3.18576e-11 -5.9753e-09 -1.18585e-09 -7.73091 5.47488 -0.417314 -3.18576e-11 -5.97532e-09 -1.18586e-09 -2.90554 0.965183 -0.102902 -3.1868e-11 -5.97533e-09 -1.18587e-09 -10.2786 0.731801 -0.0259123 -3.18538e-11 -5.97533e-09 -1.18588e-09 -2.22167 -0.733487 0.20892 -2.03217e-16 0.0 -3.88251e-19 5.7152 -12.532 0.252169 -0.0826573 15.1669 0.237296 -1.1434 -4.60946 -3.91892 2.03217e-16 0.0 3.88251e-19 5.65853 -15.7571 3.58559 0.0270586 22.7547 -0.3328 1.12269 -6.72687 3.47684
-7.39975 82.5937 -27.3967 -5.2446 1.8281 8.4261 1.59711 -6.49318 3.16787 2.65385 1.45924 0.772451 5.38356 -4.13772 1.90306 -11.7407 10.9952 3.09193 -0.0 0.0 0.0 -0.0 0.0 0.0 1.87261e-13 2.62396e-14 8.04581e-14 73.4455 61.8789 1.04652 -28.4189 -34.8119 75.0448 -0.442647 -18.5726 -2.70665 2.26134e-10 -4.69136e-09 1.49627e-09 3.70005e-10 -8.10886e-09 2.5866e-09 2.26134e-10 -4.69137e-09 1.49625e-09 7.73091 5.47488 0.417314 2.26133e-10 -4.69136e-09 1.49627e-09 2.90554 0.965183 0.102902 2.26133e-10 -4.69136e-09 1.49627e-09 10.2786 0.731801 0.0259123 2.26127e-10 -4.69136e-09 1.49628e-09 2.22167 -0.733487 -0.20892 1.87261e-13 2.62396e-14 8.01599e-14 -69.239 65.1181 -7.96537 28.0956 -31.2152 -69.1924 0.22871 -13.4952 1.93287 -8.62693e-11 -5.29152e-09 -1.01991e-09 -1.36236e-10 -9.15909e-09 -1.76819e-09 -8.62686e-11 -5.29149e-09 -1.01989e-09 -7.73091 5.47488 -0.417314 -8.62695e-11 -5.29152e-09 -1.01991e-09 -2.90554 0.965183 -0.102902 -8.62799e-11 -5.29153e-09 -1.01991e-09 -10.2786 0.731801 -0.0259123 -8.6266e-11 -5.29153e-09 -1.01992e-09 -2.22167 -0.733487 0.20892 -2.03217e-16 0.0 -3.88251e-19 7.08747 -14.8418 0.266747 -0.125095 18.9495 0.312547 -1.45359 -6.48768 -4.86474 2.03217e-16 0.0 3.88251e-19 7.3801 -17.7776 4.32519 0.0553494 26.3802 -0.400799 1.36472 -8.26381 4.24393
-7.28159 82.6005 -27.4564 -5.2107 2.212 8.3627 1.82614 -6.83786 3.29565 2.82724 1.48974 0.805949 5.8099 -4.27529 2.0744 -12.7832 12.0287 3.44172 -0.0 0.0 0.0 -0.0 0.0 0.0 1.76843e-13 -5.6405e-14 6.89837e-14 78.3468 66.2316 1.37249 -28.3273 -32.4383 79.8587 -0.558028 -20.122 -2.95958 -5.1572e-11 -1.49957e-09 6.13875e-10 -9.59553e-11 -2.58171e-09 1.05794e-09 -5.15719e-11 -1.49957e-09 6.13856e-10 7.73091 5.47488 0.417314 -5.15729e-11 -1.49956e-09 6.1387e-10 2.90554 0.965183 0.102902 -5.15712e-11 -1.49957e-09 6.13873e-10 10.2786 0.731801 0.0259123 -5.15796e-11 -1.49957e-09 6.13883e-10 2.22167 -0.733487 -0.20892 1.76821e-13 -5.64051e-14 6.86914e-14 -72.5031 69.4895 -9.93032 28.0444 -29.452 -73.9563 0.290221 -14.701 2.11613 -8.44744e-12 -5.59748e-10 4.46576e-12 -1.35981e-11 -9.87448e-10 3.45346e-12 -8.44732e-12 -5.59725e-10 4.49007e-12 -7.73091 5.47488 -0.417314 -8.44767e-12 -5.59743e-10 4.47498e-12 -2.90554 0.965183 -0.102902 -8.45726e-12 -5.59753e-10 4.46632e-12 -10.2786 0.731801 -0.0259123 -8.44367e-12 -5.59756e-10 4.4596e-12 -2.22167 -0.733487 0.20892 -2.03217e-16 0.0 -3.88251e-19 7.55031 -15.7146 0.170913 -0.144138 20.4408 0.34258 -1.60845 -7.23001 -5.31407 2.03217e-16 0.0 3.88251e-19 7.98175 -18.5745 4.49807 0.0668213 27.8006 -0.428338 1.46315 -8.87516 4.5022
-7.22902 82.608 -27.4704 -5.3355 2.3748 8.2727 1.77271 -6.62627 3.12122 2.74415 1.37336 0.761016 5.8203 -4.02205 2.11198 -12.9334 12.3164 3.59285 -0.0 0.0 0.0 -0.0 0.0 0.0 1.46088e-13 -1.81987e-13 4.37761e-14 77.7283 65.7529 1.42768 -28.3177 -32.7209 79.3421 -0.566599 -20.3315 -2.99246 -4.41905e-10 3.73506e-09 -8.53956e-10 -7.47659e-10 6.48138e-09 -1.48433e-09 -4.41904e-10 3.73507e-09 -8.53973e-10 7.73091 5.47488 0.417314 -4.41904e-10 3.73507e-09 -8.53957e-10 2.90554 0.965183 0.102902 -4.419e-10 3.73506e-09 -8.53956e-10 10.2786 0.731801 0.0259123 -4.41912e-10 3.73506e-09 -8.5395e-10 2.22167 -0.733487 -0.20892 1.46023e-13 -1.81988e-13 4.3481e-14 -72.6917 68.8005 -9.08121 28.0457 -29.7235 -73.5465 0.299188 -14.9716 2.15665 1.6268e-10 7.01932e-09 1.63231e-09 2.63145e-10 1.21036e-08 2.81923e-09 1.62678e-10 7.01932e-09 1.63234e-09 -7.73091 5.47488 -0.417314 1.62679e-10 7.01932e-09 1.63233e-09 -2.90554 0.965183 -0.102902 1.62671e-10 7.01931e-09 1.63232e-09 -10.2786 0.731801 -0.0259123 1.62684e-10 7.01931e-09 1.63231e-09 -2.22167 -0.733487 0.20892 -2.03217e-16 0.0 -3.88251e-19 7.36439 -15.5612 -0.00293946 -0.14111 20.2956 0.337984 -1.62047 -7.16415 -5.4027 2.03217e-16 0.0 3.88251e-19 7.75681 -18.5003 4.25635 0.0613646 27.6459 -0.42406 1.43805 -8.82773 4.39269
